<svg width="692" height="649" fill="none" xmlns="http://www.w3.org/2000/svg"><path d="m149.995 203.45-22.233 40.798-40.867 22.271c-39.107 21.312-40.743 22.336-37.979 23.784 1.588.833 19.907 10.834 40.708 22.225l37.819 20.712 21.974 39.952c12.086 21.973 22.438 39.951 23.006 39.951.568 0 10.921-17.978 23.007-39.951l21.973-39.952 37.82-20.712c20.801-11.391 39.119-21.392 40.708-22.225 2.764-1.448 1.128-2.472-37.978-23.783l-40.866-22.271-21.09-38.796c-11.599-21.338-21.693-39.697-22.429-40.799-1.138-1.701-4.681 4.129-23.573 38.796" fill-rule="evenodd" fill="#000"/></svg>